<svg width="0" height="0" class="hidden">
  <symbol fill="none" xmlns="http://www.w3.org/2000/svg" viewBox="0 0 24 24" id="arrow_back">
    <path d="M11.4375 18.75L4.6875 12L11.4375 5.25M5.625 12H19.3125" stroke="#232321" stroke-width="1.5" stroke-linecap="round" stroke-linejoin="round"></path>
  </symbol>
  <symbol fill="none" xmlns="http://www.w3.org/2000/svg" viewBox="0 0 24 24" id="arrow_trend_right_up">
    <path d="M7.62511 6.82924H17.171V16.3752M16.5081 7.49215L6.82961 17.1707"  stroke-width="1.5" stroke-linecap="round" stroke-linejoin="round"></path>
  </symbol>
  <symbol fill="none" xmlns="http://www.w3.org/2000/svg" viewBox="0 0 18 13" id="check">
    <path d="M5.9999 10.1701L2.5299 6.70008C2.34292 6.5131 2.08933 6.40806 1.8249 6.40806C1.56048 6.40806 1.30688 6.5131 1.1199 6.70008C0.932924 6.88705 0.827881 7.14065 0.827881 7.40508C0.827881 7.53601 0.85367 7.66566 0.903775 7.78662C0.95388 7.90758 1.02732 8.0175 1.1199 8.11008L5.2999 12.2901C5.6899 12.6801 6.3199 12.6801 6.7099 12.2901L17.2899 1.71008C17.4769 1.5231 17.5819 1.2695 17.5819 1.00508C17.5819 0.740651 17.4769 0.487055 17.2899 0.300077C17.1029 0.1131 16.8493 0.00805664 16.5849 0.00805664C16.3205 0.00805664 16.0669 0.1131 15.8799 0.300077L5.9999 10.1701Z" fill="black"></path>
  </symbol>
  <symbol fill="none" xmlns="http://www.w3.org/2000/svg" viewBox="0 0 24 24" id="chevron_down">
    <path d="M5.25 9L12 15.75L18.75 9" stroke="#232321" stroke-width="1.5" stroke-linecap="round" stroke-linejoin="round"></path>
  </symbol>
  <symbol fill="none" xmlns="http://www.w3.org/2000/svg" viewBox="0 0 24 24" id="chevron_forward">
    <path d="M9 5.25L15.75 12L9 18.75" stroke="#232321" stroke-width="1.5" stroke-linecap="round" stroke-linejoin="round"></path>
  </symbol>
  <symbol fill="none" xmlns="http://www.w3.org/2000/svg" viewBox="0 0 24 24" id="facebook">
    <path d="M22 12C22 6.48 17.52 2 12 2C6.48 2 2 6.48 2 12C2 16.84 5.44 20.87 10 21.8V15H8V12H10V9.5C10 7.57 11.57 6 13.5 6H16V9H14C13.45 9 13 9.45 13 10V12H16V15H13V21.95C18.05 21.45 22 17.19 22 12Z" fill="#E7E7E3"></path>
  </symbol>
  <symbol fill="none" xmlns="http://www.w3.org/2000/svg" viewBox="0 0 24 24" id="menu">
    <path d="M4.125 7.125H19.875M4.125 12H19.875M4.125 16.875H19.875" stroke="#232321" stroke-width="2.25" stroke-miterlimit="10" stroke-linecap="round"></path>
  </symbol>
  <symbol fill="none" xmlns="http://www.w3.org/2000/svg" viewBox="0 0 16 10" id="tick-down">
    <path d="M0.611519 1.89369L0.611498 1.89367C-0.00262684 1.17903 0.505005 0.0751953 1.44591 0.0751953H14.5522C15.4931 0.0751953 16.0007 1.17905 15.3884 1.89369L8.83624 9.53994C8.73283 9.66055 8.60455 9.75737 8.4602 9.82375C8.31585 9.89013 8.15885 9.9245 7.99997 9.9245C7.84109 9.9245 7.68409 9.89013 7.53975 9.82375C7.3954 9.75737 7.26712 9.66055 7.16371 9.53994L0.611519 1.89369Z" fill="#232321" stroke="#232321" stroke-width="0.046875"></path>
  </symbol>
  <symbol fill="none" xmlns="http://www.w3.org/2000/svg" viewBox="0 0 24 24" id="user">
    <path d="M20.2506 22.4766H20.2503L3.75027 22.4766L3.74996 22.4766C3.53748 22.4793 3.32705 22.4347 3.13398 22.3459C2.94092 22.2571 2.77008 22.1264 2.63388 21.9633L2.63387 21.9632C2.33401 21.6048 2.21259 21.1146 2.30239 20.6179L2.3024 20.6179C2.69683 18.4298 3.92767 16.5916 5.86327 15.3008C7.58316 14.1546 9.76246 13.5234 12.0003 13.5234C14.2381 13.5234 16.4174 14.1551 18.1373 15.3008C20.0729 16.5912 21.3037 18.4293 21.6981 20.6174C21.7879 21.1142 21.6665 21.6043 21.3667 21.9628L21.3666 21.9628C21.2305 22.126 21.0597 22.2568 20.8666 22.3457C20.6735 22.4346 20.4631 22.4793 20.2506 22.4766ZM12.0003 1.52344C13.4003 1.52344 14.668 2.0633 15.5756 3.04311C16.4943 4.03505 16.9424 5.37056 16.8364 6.80358C16.6257 9.65898 14.4568 11.9766 12.0003 11.9766C9.54369 11.9766 7.3711 9.65849 7.16364 6.80268C7.05907 5.3564 7.50444 4.01811 8.41745 3.03375C9.3207 2.06009 10.5926 1.52344 12.0003 1.52344Z" fill="#232321" stroke="#232321" stroke-width="0.046875"></path>
  </symbol>
  <symbol fill="none" xmlns="http://www.w3.org/2000/svg" viewBox="0 0 32 32" id="apple-icon">
    <path d="M24.0591 30.0464C22.426 31.6295 20.6429 31.3795 18.9265 30.6296C17.11 29.8631 15.4436 29.8297 13.5271 30.6296C11.1274 31.6628 9.86093 31.3629 8.42778 30.0464C0.295471 21.6641 1.49532 8.89903 10.7275 8.43243C12.9772 8.54908 14.5437 9.6656 15.8602 9.76559C17.8266 9.36564 19.7097 8.21579 21.8094 8.36577C24.3258 8.56574 26.2255 9.56562 27.4754 11.3654C22.276 14.4817 23.5092 21.3308 28.2753 23.2472C27.3254 25.7469 26.0922 28.2299 24.0425 30.063L24.0591 30.0464ZM15.6935 8.33244C15.4436 4.61624 18.4598 1.54996 21.9261 1.25C22.4093 5.54946 18.0266 8.74905 15.6935 8.33244Z" fill="black"></path>
  </symbol>
  <symbol fill="none" xmlns="http://www.w3.org/2000/svg" viewBox="0 0 128 32" id="logo">
    <path d="M32.1178 31.9998C31.7937 31.9998 31.5139 31.8813 31.2783 31.6442C31.0426 31.4072 30.9248 31.1257 30.9248 30.7998V2.08867C30.9248 1.76275 31.0426 1.48126 31.2783 1.24423C31.5139 1.00719 31.7937 0.888672 32.1178 0.888672H41.1312C41.4552 0.888672 41.7351 1.00719 41.9707 1.24423C42.2064 1.48126 42.3242 1.76275 42.3242 2.08867V30.7998C42.3242 31.1257 42.2064 31.4072 41.9707 31.6442C41.7351 31.8813 41.4552 31.9998 41.1312 31.9998H32.1178Z" fill="#232321"></path>
    <path d="M1.19296 31.5554C0.868945 31.5554 0.589115 31.4369 0.353469 31.1999C0.117823 30.9629 0 30.6814 0 30.3554V1.64434C0 1.31841 0.117823 1.03693 0.353469 0.799892C0.589115 0.562854 0.868945 0.444336 1.19296 0.444336H9.63203C9.95605 0.444336 10.2359 0.562854 10.4715 0.799892C10.7072 1.03693 10.825 1.31841 10.825 1.64434V10.4443L15.8177 1.42211C15.965 1.18508 16.1761 0.962854 16.4609 0.755447C16.7407 0.54804 17.1138 0.444336 17.5851 0.444336H27.3497C27.6148 0.444336 27.8406 0.543101 28.037 0.730756C28.2284 0.923348 28.3217 1.15051 28.3217 1.42211C28.3217 1.59989 28.2775 1.76285 28.1892 1.911L20.2361 15.3332L28.9403 30.0888C29.0286 30.2073 29.0728 30.3703 29.0728 30.5777C29.0728 30.8443 28.9746 31.0764 28.7881 31.269C28.5966 31.4616 28.3708 31.5554 28.1008 31.5554H18.0269C17.4378 31.5554 17.0009 31.4172 16.726 31.1308C16.4461 30.8493 16.2743 30.6517 16.2154 30.5332L10.825 20.8443V30.3554C10.825 30.6814 10.7072 30.9629 10.4715 31.1999C10.2359 31.4369 9.95605 31.5554 9.63203 31.5554H1.19296Z" fill="#232321"></path>
    <path d="M58.8232 32C55.9955 32 53.4917 31.5852 51.312 30.7556C49.1323 29.9259 47.3993 28.6222 46.118 26.8444C44.8367 25.0667 44.1346 22.7704 44.0217 19.9556C43.9923 18.7407 43.9775 17.437 43.9775 16.0444C43.9775 14.6519 43.9923 13.3185 44.0217 12.0444C44.1395 9.28889 44.8514 7.02222 46.1622 5.24444C47.473 3.46667 49.2256 2.14815 51.42 1.28889C53.6145 0.42963 56.0839 0 58.8232 0C60.7084 0 62.5248 0.217284 64.2824 0.641975C66.035 1.0716 67.6158 1.74815 69.0297 2.66667C70.4435 3.58519 71.5678 4.76543 72.4073 6.19753C73.2467 7.63457 73.6788 9.36296 73.7131 11.3778C73.7131 11.6444 73.6149 11.8765 73.4284 12.0691C73.2369 12.2617 73.0111 12.3556 72.7411 12.3556H63.7276C63.2563 12.3556 62.9078 12.2617 62.6869 12.0691C62.4659 11.8765 62.2696 11.5457 62.0928 11.0667C61.7688 10.1185 61.327 9.48148 60.7673 9.15556C60.2077 8.82963 59.5449 8.66667 58.7791 8.66667C57.807 8.66667 57.0313 8.92839 56.457 9.44691C55.8826 9.96543 55.5635 10.9086 55.5046 12.2667C55.4162 14.6963 55.4162 17.1852 55.5046 19.7333C55.5635 21.0963 55.8826 22.0395 56.457 22.5531C57.0313 23.0716 57.807 23.3333 58.7791 23.3333C59.5449 23.3333 60.2126 23.1556 60.787 22.8C61.3613 22.4444 61.7934 21.8222 62.0928 20.9333C62.2401 20.4296 62.4316 20.0889 62.6672 19.9111C62.9029 19.7333 63.2563 19.6444 63.7276 19.6444H72.7411C73.0062 19.6444 73.232 19.7432 73.4284 19.9309C73.6199 20.1235 73.7131 20.3506 73.7131 20.6222C73.6837 22.637 73.2517 24.3654 72.4073 25.8025C71.5678 27.2395 70.4435 28.4198 69.0297 29.3333C67.6158 30.2519 66.0301 30.9284 64.2824 31.3531C62.5248 31.7827 60.7084 32 58.8232 32Z" fill="#232321"></path>
    <path d="M99.8153 30.0888L91.1111 15.3332L99.0642 1.911C99.1525 1.76285 99.1967 1.59989 99.1967 1.42211C99.1967 1.15545 99.1034 0.928287 98.912 0.735694C98.7205 0.543101 98.4898 0.444336 98.2247 0.444336H88.4601C87.9888 0.444336 87.6157 0.54804 87.3359 0.755447C87.056 0.962854 86.84 1.18508 86.6927 1.42211L82.2744 9.4073L81.7 10.4443V1.64434C81.7 1.31841 81.5822 1.03693 81.3465 0.799892C81.1109 0.562854 80.831 0.444336 80.507 0.444336H72.068C71.7439 0.444336 71.4641 0.562854 71.2285 0.799892C71.199 0.834459 71.1696 0.864089 71.1401 0.898657C71.1107 0.933225 71.0861 0.967793 71.0665 1.00236C71.0419 1.03693 71.0223 1.07643 71.0026 1.111C70.983 1.15051 70.9683 1.18508 70.9536 1.22458C72.4754 2.27643 73.7224 3.60977 74.6502 5.19989C75.6567 6.92829 76.1869 8.99742 76.2212 11.348C76.2212 12.1629 75.9168 12.9036 75.3621 13.4666C74.8024 14.0246 74.066 14.3308 73.2855 14.3308H70.875V17.669H73.2855C74.066 17.669 74.8024 17.9752 75.3572 18.5332C75.9168 19.1011 76.2212 19.8419 76.2212 20.6221C76.1869 23.0024 75.6567 25.0715 74.6502 26.7999C73.7224 28.39 72.4754 29.7233 70.9536 30.7752C70.9683 30.8147 70.983 30.8542 71.0026 30.8888C71.0419 30.9629 71.0861 31.0369 71.1401 31.1011C71.1696 31.1357 71.199 31.1653 71.2285 31.1999C71.4641 31.4369 71.7439 31.5554 72.068 31.5554H80.507C80.831 31.5554 81.1109 31.4369 81.3465 31.1999C81.5822 30.9629 81.7 30.6814 81.7 30.3554V20.8443L82.2744 21.8764L87.0904 30.5332C87.1493 30.6517 87.3211 30.8542 87.601 31.1357C87.8808 31.4172 88.3128 31.5554 88.9019 31.5554H98.9758C99.2409 31.5554 99.4716 31.4616 99.6631 31.269C99.8546 31.0764 99.9478 30.8443 99.9478 30.5777C99.9478 30.3703 99.9037 30.2073 99.8153 30.0888Z" fill="#232321"></path>
    <path d="M113.331 32C110.062 32 107.367 31.5556 105.246 30.6667C103.125 29.7778 101.534 28.6074 100.474 27.1556C99.4135 25.7037 98.8538 24.163 98.7949 22.5333C98.7949 22.2667 98.8882 22.0395 99.0797 21.842C99.2711 21.6494 99.497 21.5556 99.7621 21.5556H108.157C108.628 21.5556 108.987 21.6198 109.242 21.7531C109.492 21.8864 109.762 22.0741 110.062 22.3062C110.356 22.5136 110.656 22.7012 110.965 22.8593C111.274 23.0222 111.628 23.1407 112.025 23.2148C112.423 23.2889 112.855 23.3284 113.331 23.3284C114.333 23.3284 115.133 23.2148 115.737 22.9926C116.341 22.7704 116.645 22.4691 116.645 22.084C116.645 21.7284 116.473 21.4321 116.135 21.1951C115.796 20.958 115.212 20.7457 114.387 20.5531C113.562 20.3605 112.413 20.1728 110.941 20C108.614 19.6741 106.596 19.1259 104.887 18.3556C103.179 17.5852 101.858 16.5284 100.935 15.1753C100.008 13.8272 99.546 12.1728 99.546 10.2173C99.546 8.20247 100.111 6.42469 101.245 4.88395C102.379 3.34321 103.955 2.14321 105.972 1.28395C107.99 0.42963 110.342 0 113.022 0C115.231 0 117.19 0.28642 118.898 0.864197C120.607 1.44198 122.05 2.19753 123.228 3.13086C124.407 4.0642 125.305 5.06667 125.924 6.13333C126.542 7.2 126.866 8.22222 126.896 9.2C126.896 9.46667 126.798 9.69876 126.611 9.89136C126.42 10.084 126.204 10.1778 125.968 10.1778H117.131C116.719 10.1778 116.385 10.1185 116.139 10C115.889 9.88148 115.629 9.7037 115.364 9.46667C115.217 9.31852 114.942 9.15062 114.544 8.95309C114.146 8.76049 113.641 8.66667 113.017 8.66667C112.281 8.66667 111.741 8.78025 111.407 9.00247C111.068 9.22469 110.896 9.53086 110.896 9.91111C110.896 10.1778 111.029 10.4296 111.294 10.6667C111.559 10.9037 112.045 11.1111 112.752 11.2889C113.459 11.4667 114.475 11.6444 115.801 11.8222C118.746 12.1778 121.108 12.7506 122.895 13.5309C124.677 14.316 125.973 15.363 126.783 16.6667C127.593 17.9704 128 19.5852 128 21.5111C128 23.6741 127.357 25.5407 126.076 27.1111C124.795 28.6815 123.047 29.8864 120.838 30.7309C118.628 31.5753 116.13 32 113.331 32Z" fill="#232321"></path>
  </symbol>
  <symbol fill="none" xmlns="http://www.w3.org/2000/svg" viewBox="0 0 24 24" id="visa-cart">
    <g clip-path="url(#clip0_39_1295)">
      <path d="M15.6966 9.20674L15.6981 9.19729L11.7878 10.9104L11.7758 10.9102C11.7758 10.9103 11.7758 10.9103 11.7758 10.9103C11.7715 11.3397 11.9608 11.674 12.2222 11.9361C12.4834 12.1979 12.8171 12.3881 13.1032 12.5299C13.3963 12.6749 13.5908 12.7931 13.7116 12.9066C13.8319 13.0196 13.8786 13.1276 13.8773 13.2532V13.2533C13.8755 13.4461 13.7619 13.5873 13.5937 13.6809C13.4251 13.7745 13.2028 13.8196 12.9877 13.8196C12.3867 13.8196 12.068 13.7307 11.5746 13.5102C11.5745 13.5102 11.5745 13.5102 11.5744 13.5102L11.3805 13.4158L11.366 13.4087L11.3634 13.4247L11.1519 14.7507L11.1505 14.7596L11.1586 14.7635C11.5125 14.9297 12.1653 15.0729 12.8421 15.0804H12.8423C13.636 15.0804 14.2918 14.8813 14.7509 14.5271C15.2102 14.1726 15.4719 13.6632 15.4778 13.045C15.4806 12.7055 15.3807 12.4063 15.1706 12.1389C14.9608 11.8719 14.6414 11.6372 14.2059 11.4254C13.9424 11.2883 13.7313 11.1746 13.5865 11.0608C13.4418 10.9471 13.3656 10.8352 13.3673 10.702V10.7019C13.3673 10.5835 13.4328 10.4596 13.5721 10.3648C13.7114 10.27 13.9245 10.2046 14.2177 10.2046L14.2179 10.2046C14.7083 10.1965 15.0637 10.3113 15.3407 10.4307L15.4753 10.4988L15.49 10.5062L15.4926 10.49L15.6966 9.20674ZM2.12249 9.13211H2.11227L2.11064 9.1422L2.0919 9.25846L2.09014 9.26938L2.10088 9.27202C2.96997 9.48544 3.77429 9.88875 4.36627 10.3878C4.37464 10.3948 4.38358 10.4024 4.39303 10.4103C4.5764 10.5646 4.95237 10.881 5.13078 11.1281C5.2391 11.2782 5.33156 11.4298 5.40963 11.574C5.02508 11.0321 4.43618 10.622 3.75862 10.263L3.73423 10.2501L3.74141 10.2767L5.0119 14.9912L5.0143 15.0001L5.0235 15.0001L6.6195 14.9986L6.61952 15.0184L6.63061 14.9911L9.00512 9.14863L9.01183 9.13211H8.994H7.39649V9.10953L7.38523 9.13995L5.92335 13.0913L5.77404 12.3226L5.77419 12.3225L5.77368 12.3212L5.77404 12.3211L5.24978 9.61508L5.2498 9.61508L5.24962 9.61438C5.20328 9.43396 5.11261 9.31599 4.99121 9.24186C4.87026 9.168 4.71992 9.13835 4.5552 9.13212L4.5552 9.13211H4.55474H2.12249ZM9.62926 9.13886H9.6191L9.61742 9.14887L8.64017 14.9824L8.63782 14.9964H8.652H10.2142H10.2244L10.2261 14.9864L11.2033 9.15284L11.2057 9.13886H11.1915H9.62926ZM19.6483 9.14836L19.6462 9.13886H19.6365H18.453C18.2688 9.13886 18.1063 9.16507 17.9693 9.24004C17.832 9.31517 17.7215 9.43859 17.6402 9.63069L15.367 14.9796L15.3599 14.9963H15.378H16.9853V15.0193L16.9965 14.9885L16.9853 14.9843L16.9965 14.9885L16.9965 14.9884L16.9966 14.9883L16.9967 14.9879L16.9973 14.9864L16.9995 14.9804L17.0079 14.9573L17.0386 14.8737L17.1355 14.6093C17.2064 14.4161 17.2843 14.2044 17.3161 14.1196C17.4138 14.1197 17.7915 14.1201 18.191 14.1206L18.2701 14.1207C18.6987 14.1213 19.1329 14.1218 19.2586 14.1219C19.2822 14.2275 19.3273 14.4388 19.3671 14.6262L19.4205 14.8789L19.4371 14.9576L19.4417 14.9793L19.4429 14.9849L19.4432 14.9864L19.4432 14.9867L19.4433 14.9868L19.4433 14.9868L19.455 14.9844L19.4433 14.9868L19.4453 14.9964H19.455H20.8755H20.8903L20.8872 14.9819L19.6483 9.14836ZM18.3706 11.2609C18.3716 11.2612 18.3725 11.2616 18.3735 11.2622C18.377 11.2644 18.3782 11.2676 18.3785 11.2688C18.379 11.2702 18.379 11.2714 18.3791 11.2719L18.3789 11.2738L18.3789 11.2743C18.3788 11.2743 18.3789 11.2742 18.379 11.2739L18.3818 11.2654C18.3847 11.257 18.3895 11.2438 18.3957 11.2267C18.4082 11.1927 18.4265 11.1436 18.4474 11.0872C18.4844 10.9879 18.5296 10.8661 18.5662 10.7643L18.6602 11.2203L18.6603 11.2204C18.7768 11.7718 18.8933 12.3232 19.0097 12.8746L17.7781 12.8754C17.8444 12.7 17.9908 12.3099 18.1226 11.959L18.3016 11.4817L18.3578 11.3318L18.3733 11.2906L18.3773 11.2798L18.3784 11.277L18.3786 11.2763L18.3787 11.2761L18.3787 11.2761L18.3675 11.2719L18.3787 11.2761L18.3674 11.2707C18.3679 11.2689 18.369 11.2655 18.3706 11.2609ZM0.012 5.42411C0.012 4.90053 0.436538 4.47611 0.96 4.47611H23.04C23.5632 4.47611 23.988 4.90056 23.988 5.42411V18.5761C23.988 19.0997 23.5635 19.5241 23.04 19.5241H0.96C0.436753 19.5241 0.012 19.0997 0.012 18.5761V5.42411Z" fill="#232321" stroke="#232321" stroke-width="0.024"></path>
    </g>
    <defs>
      <clipPath id="clip0_39_1295">
        <rect width="24" height="24" fill="white"></rect>
      </clipPath>
    </defs>
  </symbol>
</svg>